<?xml version="1.0" encoding="UTF-8"?>
<svg width="105px" height="22px" viewBox="0 0 105 22" version="1.1" xmlns="http://www.w3.org/2000/svg" xmlns:xlink="http://www.w3.org/1999/xlink">
    <!-- Generator: Sketch 46 (44423) - http://www.bohemiancoding.com/sketch -->
    <title>Group 2</title>
    <desc>Created with Sketch.</desc>
    <defs></defs>
    <g id="1024" stroke="none" stroke-width="1" fill="none" fill-rule="evenodd">
        <g id="Category-Landing-Page" transform="translate(-46.000000, -36.000000)" fill="#000000">
            <g id="Group-2" transform="translate(46.000000, 36.000000)">
                <path d="M9.84545455,19.9466667 L9.73636364,19.1491667 C9.05454545,19.5066667 8.12727273,19.7266667 7.44545455,19.7266667 C6.10909091,19.7266667 5.15454545,19.0941667 5.18181818,16.9491667 L5.31818182,10.8991667 L9.57272727,10.8991667 L9.76363636,9.22166667 L5.31818182,9.22166667 L5.34545455,6.49916667 L4.06363636,6.33416667 L2.12727273,8.09416667 L0.163636364,9.82666667 L0.109090909,10.7891667 L2.23636364,10.9816667 L2.1,17.9116667 C2.04545455,20.6891667 3.43636364,21.9541667 5.59090909,21.9541667 C7.25454545,21.9541667 8.83636364,21.1291667 9.84545455,19.9466667 Z M25.2545455,21.5416667 L25.1727273,20.4691667 L24.6,20.3866667 C23.6181818,20.2766667 23.4818182,20.1116667 23.4818182,19.8641667 L23.4818182,12.7966667 C23.4818182,11.3941667 23.1545455,10.3491667 22.4454545,9.63416667 C21.8181818,9.00166667 20.9454545,8.67166667 20.1272727,8.67166667 C18.6272727,8.67166667 17.1545455,9.49666667 15.6545455,10.7066667 L15.5181818,10.7066667 L15.5181818,2.37416667 L10.5272727,3.91416667 L10.4454545,4.71166667 L11.8363636,5.37166667 C12.1363636,5.53666667 12.3,5.81166667 12.3,6.30666667 L12.3,19.8641667 C12.3,20.1941667 12.0272727,20.3316667 11.3727273,20.3866667 L10.7181818,20.4691667 L10.6363636,21.5416667 L17.3454545,21.5416667 L17.2636364,20.4691667 L16.5545455,20.3866667 C15.6818182,20.3316667 15.5181818,20.1666667 15.5181818,19.8916667 L15.5181818,11.9441667 C16.0090909,11.5591667 16.9909091,11.0916667 17.9181818,11.0916667 C19.4454545,11.0916667 20.2909091,11.7516667 20.2909091,14.4741667 L20.2909091,19.8641667 C20.2909091,20.1391667 20.1545455,20.3316667 19.3636364,20.3866667 L18.8181818,20.4691667 L18.7363636,21.5416667 L25.2545455,21.5416667 Z M37.6363636,18.2141667 C36.7363636,20.6066667 34.8,21.9541667 32.1818182,21.9541667 C28.9090909,21.9541667 26.4272727,19.4241667 26.4272727,15.7391667 C26.4272727,11.6966667 29.2909091,8.67166667 33.1090909,8.67166667 C35.7272727,8.67166667 37.6909091,10.2391667 37.6909091,12.9341667 C37.6909091,13.3741667 37.6363636,13.9791667 37.5272727,14.4466667 L29.7818182,14.3366667 L29.7818182,14.6391667 C29.8090909,17.6641667 31.3363636,19.6166667 33.6272727,19.6166667 C34.8545455,19.6166667 36.1090909,19.0116667 37.0363636,17.8841667 L37.6363636,18.2141667 Z M34.4727273,13.3466667 C34.6090909,11.1466667 33.8181818,9.88166667 32.5909091,9.88166667 C31.2272727,9.88166667 30.0272727,11.0641667 29.8090909,13.4016667 C29.8090909,13.4016667 34.5545455,13.3466667 34.4727273,13.3466667 Z M60.2181818,21.5416667 L60.1363636,20.4691667 L59.5636364,20.3866667 C58.5818182,20.2766667 58.4454545,20.1116667 58.4454545,19.8641667 L58.4454545,12.7966667 C58.4454545,11.3941667 58.1181818,10.3491667 57.4090909,9.63416667 C56.7818182,9.00166667 55.9090909,8.67166667 55.0909091,8.67166667 C53.5909091,8.67166667 52.1181818,9.49666667 50.6181818,10.7066667 L50.4818182,10.7066667 L50.4818182,8.67166667 L45.6,10.0191667 L45.5727273,10.8716667 L46.1181818,11.0366667 C47.0727273,11.2841667 47.2909091,11.5316667 47.2909091,13.2641667 L47.2909091,19.8641667 C47.2909091,20.1941667 47.0181818,20.3316667 46.3636364,20.3866667 L45.7090909,20.4691667 L45.6272727,21.5416667 L52.3363636,21.5416667 L52.2545455,20.4691667 L51.5181818,20.3866667 C50.6454545,20.3316667 50.4818182,20.1666667 50.4818182,19.8916667 L50.4818182,11.9441667 C51,11.5591667 51.9818182,11.0916667 52.8818182,11.0916667 C54.4090909,11.0916667 55.2545455,11.7516667 55.2545455,14.4741667 L55.2545455,19.8641667 C55.2545455,20.1391667 55.1181818,20.3316667 54.3272727,20.3866667 L53.8090909,20.4691667 L53.7272727,21.5416667 L60.2181818,21.5416667 Z M74.5909091,15.1066667 C74.5909091,18.9016667 71.7272727,21.9541667 67.7727273,21.9541667 C63.8181818,21.9541667 61.4727273,18.9841667 61.4727273,15.4091667 C61.4727273,11.6691667 64.4454545,8.67166667 68.3454545,8.67166667 C72.2454545,8.67166667 74.5909091,11.5866667 74.5909091,15.1066667 Z M71.0454545,15.9866667 C71.0454545,13.6766667 70.6363636,11.6691667 69.7636364,10.7616667 C69.4090909,10.3491667 68.8090909,9.96416667 67.9636364,9.96416667 C66.2454545,9.96416667 65.0181818,11.7241667 65.0181818,14.6666667 C65.0181818,17.0316667 65.3181818,18.9566667 66.2727273,19.9466667 C66.6272727,20.3041667 67.3090909,20.6891667 68.1272727,20.6891667 C69.8181818,20.6891667 71.0454545,18.8466667 71.0454545,15.9866667 Z M89.5636364,15.1066667 C89.5636364,18.9016667 86.7,21.9541667 82.7454545,21.9541667 C78.7909091,21.9541667 76.4454545,18.9841667 76.4454545,15.4091667 C76.4454545,11.6691667 79.4181818,8.67166667 83.3181818,8.67166667 C87.2181818,8.67166667 89.5636364,11.5866667 89.5636364,15.1066667 Z M86.0181818,15.9866667 C86.0181818,13.6766667 85.6090909,11.6691667 84.7363636,10.7616667 C84.3818182,10.3491667 83.7818182,9.96416667 82.9363636,9.96416667 C81.2181818,9.96416667 79.9909091,11.7241667 79.9909091,14.6666667 C79.9909091,17.0316667 80.2909091,18.9566667 81.2454545,19.9466667 C81.6,20.3041667 82.2818182,20.6891667 83.1,20.6891667 C84.7909091,20.6891667 86.0181818,18.8466667 86.0181818,15.9866667 Z M104.754545,21.5416667 L104.672727,20.4691667 L104.1,20.3591667 C103.472727,20.2216667 103.145455,19.8916667 102.654545,19.1766667 L99.1363636,13.7041667 L99.9,12.9891667 C101.754545,11.3116667 102.790909,10.5141667 103.8,10.2941667 L104.372727,10.1566667 L104.454545,9.08416667 L98.1818182,9.08416667 L98.2636364,10.1566667 L98.5636364,10.1841667 C99.0545455,10.2666667 99.5454545,10.5141667 99.5454545,11.0091667 C99.5454545,11.7241667 98.4818182,12.6591667 96.9272727,14.0891667 L95.8363636,15.1066667 L95.8363636,2.37416667 L90.8454545,3.91416667 L90.7636364,4.71166667 L92.1545455,5.37166667 C92.4545455,5.53666667 92.6181818,5.81166667 92.6181818,6.30666667 L92.6181818,19.8641667 C92.6181818,20.1941667 92.3454545,20.3316667 91.6909091,20.3866667 L91.0363636,20.4691667 L90.9545455,21.5416667 L97.3909091,21.5416667 L97.3090909,20.4691667 L96.7909091,20.3866667 C96,20.2766667 95.8363636,20.1666667 95.8363636,19.8916667 L95.8363636,16.6191667 L96.8727273,15.6291667 L98.8636364,19.0666667 L100.145455,21.5416667 L104.754545,21.5416667 Z" id="the-nook"></path>
                <g id="Group" transform="translate(17.727273, 0.000000)">
                    <polygon id="Fill-1" points="0 -2.34375e-05 0 1.25075781 1.73061889 1.25075781 1.73061889 6.74239844 3.30569662 6.74239844 3.30569662 1.25075781 5.03623779 1.25075781 5.03623779 -2.34375e-05"></polygon>
                    <path d="M6.28060594,2.60903125 L6.26117301,2.60903125 L6.27088947,1.92504688 L4.7153224,1.92504688 L4.7153224,6.74239063 L6.27088947,6.74239063 L6.27088947,4.60246875 C6.27088947,4.06496875 6.39720351,3.7523125 6.51387881,3.59598438 C6.63063185,3.43957813 6.88341538,3.2441875 7.23336356,3.2441875 C7.50565776,3.2441875 7.70978124,3.31254688 7.79730715,3.36145313 L7.8653224,3.36145313 L7.95284831,1.92504688 C7.95284831,1.92504688 7.78759069,1.83707813 7.46671417,1.83707813 C6.95143063,1.83707813 6.5528224,2.081375 6.28060594,2.60903125" id="Fill-2"></path>
                    <polygon id="Fill-4" points="16.0905582 4.97375781 15.0016146 1.92500781 13.3780323 1.92500781 15.341924 6.74242969 16.8003265 6.74242969 18.7739347 1.92500781 17.1697076 1.92500781"></polygon>
                    <path d="M20.4267208,3.8206875 C20.4461538,3.36146875 20.776669,2.85334375 21.418422,2.85334375 C22.0698138,2.85334375 22.3906903,3.381 22.4003291,3.8206875 L20.4267208,3.8206875 Z M23.8489373,4.19201562 C23.8489373,2.78490625 22.8670303,1.83701562 21.4475714,1.83701562 C20.0281126,1.83701562 18.8614373,2.74584375 18.8614373,4.33857812 C18.8614373,5.93139062 19.9406644,6.84990625 21.418422,6.84990625 C22.9059739,6.84990625 23.537855,6.18545312 23.6933961,6.0681875 L23.080948,5.25709375 C22.8087315,5.44279687 22.2642986,5.71639062 21.6420562,5.71639062 C21.0100973,5.71639062 20.4850196,5.40365625 20.4170044,4.70990625 L23.8295821,4.70990625 C23.8295821,4.70990625 23.8489373,4.42654687 23.8489373,4.19201562 L23.8489373,4.19201562 Z" id="Fill-6"></path>
                    <path d="M11.1323864,4.5906875 L11.1323864,5.5413125 L10.3697605,5.5413125 L10.3697605,4.5906875 C10.1353994,4.45701563 9.97698216,4.20435938 9.97698216,3.914125 C9.97698216,3.4844375 10.3235879,3.13607813 10.7511123,3.13607813 C11.1786367,3.13607813 11.5251647,3.4844375 11.5251647,3.914125 C11.5251647,4.20435938 11.3667475,4.45701563 11.1323864,4.5906875 M10.7511123,1.84357813 C9.38000259,1.84357813 8.2685168,2.9606875 8.2685168,4.33873438 C8.2685168,5.71670313 9.38000259,6.8338125 10.7511123,6.8338125 C12.1221443,6.8338125 13.2336301,5.71670313 13.2336301,4.33873438 C13.2336301,2.9606875 12.1221443,1.84357813 10.7511123,1.84357813" id="Fill-9"></path>
                </g>
            </g>
        </g>
    </g>
</svg>