<?xml version="1.0" encoding="UTF-8"?>
<svg width="106px" height="32px" viewBox="0 0 106 32" version="1.1" xmlns="http://www.w3.org/2000/svg" xmlns:xlink="http://www.w3.org/1999/xlink">
    <!-- Generator: Sketch 46.1 (44463) - http://www.bohemiancoding.com/sketch -->
    <title>Group</title>
    <desc>Created with Sketch.</desc>
    <defs></defs>
    <g id="1024" stroke="none" stroke-width="1" fill="none" fill-rule="evenodd">
        <g id="Category-Landing-Page" transform="translate(-461.000000, -2666.000000)" fill="#000000">
            <g id="Group-6" transform="translate(0.000000, 2566.000000)">
                <g id="Group" transform="translate(461.000000, 100.000000)">
                    <polygon id="Fill-1" points="0 -0.000107142857 0 5.71775 7.64356678 5.71775 7.64356678 30.8223929 14.6001601 30.8223929 14.6001601 5.71775 22.2433836 5.71775 22.2433836 -0.000107142857"></polygon>
                    <path d="M27.7393429,11.927 L27.6535141,11.927 L27.6964285,8.80021429 L20.8260073,8.80021429 L20.8260073,30.8223571 L27.6964285,30.8223571 L27.6964285,21.0398571 C27.6964285,18.5827143 28.2543155,17.1534286 28.7696314,16.4387857 C29.2852907,15.7237857 30.4017513,14.8305714 31.9473557,14.8305714 C33.1499884,14.8305714 34.0515338,15.1430714 34.4381066,15.3666429 L34.7385073,15.3666429 L35.12508,8.80021429 C35.12508,8.80021429 34.3951922,8.39807143 32.9779876,8.39807143 C30.702152,8.39807143 28.9416323,9.51485714 27.7393429,11.927" id="Fill-2"></path>
                    <polygon id="Fill-4" points="71.066632 22.7371786 66.2571311 8.80003571 59.0863092 8.80003571 67.7601645 30.8225357 74.2014419 30.8225357 82.9182116 8.80003571 75.8328751 8.80003571"></polygon>
                    <path d="M90.218017,17.466 C90.3038458,15.3667143 91.7636215,13.0438571 94.5980307,13.0438571 C97.475011,13.0438571 98.8922156,15.456 98.9347867,17.466 L90.218017,17.466 Z M105.332806,19.1635 C105.332806,12.731 100.99605,8.39778571 94.7267739,8.39778571 C88.4574973,8.39778571 83.3046814,12.5524286 83.3046814,19.8335 C83.3046814,27.1149286 88.0712679,31.3138571 94.5980307,31.3138571 C101.168051,31.3138571 103.958859,28.2763571 104.645833,27.7402857 L101.940853,24.0324286 C100.738564,24.8813571 98.3339853,26.1320714 95.5857482,26.1320714 C92.7945966,26.1320714 90.4755033,24.7024286 90.1751026,21.531 L105.247321,21.531 C105.247321,21.531 105.332806,20.2356429 105.332806,19.1635 L105.332806,19.1635 Z" id="Fill-6"></path>
                    <path d="M49.1680398,20.986 L49.1680398,25.3317143 L45.7997756,25.3317143 L45.7997756,20.986 C44.7646807,20.3749286 44.0650045,19.2199286 44.0650045,17.8931429 C44.0650045,15.9288571 45.5958464,14.3363571 47.4840793,14.3363571 C49.3723122,14.3363571 50.9028108,15.9288571 50.9028108,17.8931429 C50.9028108,19.2199286 50.2031347,20.3749286 49.1680398,20.986 M47.4840793,8.42778571 C41.4283448,8.42778571 36.5192826,13.5345714 36.5192826,19.8342143 C36.5192826,26.1335 41.4283448,31.2402857 47.4840793,31.2402857 C53.5394706,31.2402857 58.4485328,26.1335 58.4485328,19.8342143 C58.4485328,13.5345714 53.5394706,8.42778571 47.4840793,8.42778571" id="Fill-9"></path>
                </g>
            </g>
        </g>
    </g>
</svg>